<mxfile host="Electron" agent="Mozilla/5.0 (Windows NT 10.0; Win64; x64) AppleWebKit/537.36 (KHTML, like Gecko) draw.io/26.2.15 Chrome/134.0.6998.205 Electron/35.2.1 Safari/537.36" version="26.2.15">
  <diagram name="Page-1" id="txCEMG2g4zkGuOjb2Fpw">
    <mxGraphModel dx="1062" dy="427" grid="1" gridSize="10" guides="1" tooltips="1" connect="1" arrows="1" fold="1" page="1" pageScale="1" pageWidth="850" pageHeight="1100" math="0" shadow="0">
      <root>
        <mxCell id="0" />
        <mxCell id="1" parent="0" />
        <mxCell id="Inrt7wn8tuvQiZkRvcpY-7" value="" style="edgeStyle=orthogonalEdgeStyle;rounded=0;orthogonalLoop=1;jettySize=auto;html=1;" parent="1" source="Inrt7wn8tuvQiZkRvcpY-1" target="Inrt7wn8tuvQiZkRvcpY-2" edge="1">
          <mxGeometry relative="1" as="geometry" />
        </mxCell>
        <mxCell id="Inrt7wn8tuvQiZkRvcpY-16" value="" style="edgeStyle=orthogonalEdgeStyle;rounded=0;orthogonalLoop=1;jettySize=auto;html=1;endArrow=none;startFill=0;dashed=1;" parent="1" source="Inrt7wn8tuvQiZkRvcpY-1" target="Inrt7wn8tuvQiZkRvcpY-14" edge="1">
          <mxGeometry relative="1" as="geometry" />
        </mxCell>
        <mxCell id="Inrt7wn8tuvQiZkRvcpY-1" value="App Frontend" style="rounded=1;whiteSpace=wrap;html=1;" parent="1" vertex="1">
          <mxGeometry x="150" y="240" width="120" height="60" as="geometry" />
        </mxCell>
        <mxCell id="Inrt7wn8tuvQiZkRvcpY-6" value="" style="edgeStyle=orthogonalEdgeStyle;rounded=0;orthogonalLoop=1;jettySize=auto;html=1;" parent="1" source="Inrt7wn8tuvQiZkRvcpY-2" target="Inrt7wn8tuvQiZkRvcpY-3" edge="1">
          <mxGeometry relative="1" as="geometry" />
        </mxCell>
        <mxCell id="Inrt7wn8tuvQiZkRvcpY-8" value="" style="edgeStyle=orthogonalEdgeStyle;rounded=0;orthogonalLoop=1;jettySize=auto;html=1;" parent="1" source="Inrt7wn8tuvQiZkRvcpY-2" target="Inrt7wn8tuvQiZkRvcpY-5" edge="1">
          <mxGeometry relative="1" as="geometry" />
        </mxCell>
        <mxCell id="Inrt7wn8tuvQiZkRvcpY-9" value="" style="edgeStyle=orthogonalEdgeStyle;rounded=0;orthogonalLoop=1;jettySize=auto;html=1;" parent="1" source="Inrt7wn8tuvQiZkRvcpY-2" target="Inrt7wn8tuvQiZkRvcpY-4" edge="1">
          <mxGeometry relative="1" as="geometry" />
        </mxCell>
        <mxCell id="Inrt7wn8tuvQiZkRvcpY-2" value="Gateway" style="rounded=1;whiteSpace=wrap;html=1;" parent="1" vertex="1">
          <mxGeometry x="320" y="240" width="120" height="60" as="geometry" />
        </mxCell>
        <mxCell id="Inrt7wn8tuvQiZkRvcpY-3" value="Rates&lt;div&gt;(with inmemory cache)&lt;/div&gt;" style="rounded=1;whiteSpace=wrap;html=1;" parent="1" vertex="1">
          <mxGeometry x="320" y="140" width="120" height="60" as="geometry" />
        </mxCell>
        <mxCell id="Inrt7wn8tuvQiZkRvcpY-4" value="Bank" style="rounded=1;whiteSpace=wrap;html=1;" parent="1" vertex="1">
          <mxGeometry x="480" y="240" width="120" height="60" as="geometry" />
        </mxCell>
        <mxCell id="Inrt7wn8tuvQiZkRvcpY-11" value="" style="edgeStyle=orthogonalEdgeStyle;rounded=0;orthogonalLoop=1;jettySize=auto;html=1;" parent="1" source="Inrt7wn8tuvQiZkRvcpY-5" target="Inrt7wn8tuvQiZkRvcpY-10" edge="1">
          <mxGeometry relative="1" as="geometry" />
        </mxCell>
        <mxCell id="Inrt7wn8tuvQiZkRvcpY-5" value="Transactions" style="rounded=1;whiteSpace=wrap;html=1;" parent="1" vertex="1">
          <mxGeometry x="320" y="340" width="120" height="60" as="geometry" />
        </mxCell>
        <mxCell id="Inrt7wn8tuvQiZkRvcpY-10" value="DB" style="rounded=1;whiteSpace=wrap;html=1;" parent="1" vertex="1">
          <mxGeometry x="320" y="430" width="120" height="60" as="geometry" />
        </mxCell>
        <mxCell id="Inrt7wn8tuvQiZkRvcpY-15" value="" style="edgeStyle=orthogonalEdgeStyle;rounded=0;orthogonalLoop=1;jettySize=auto;html=1;" parent="1" source="Inrt7wn8tuvQiZkRvcpY-14" target="Inrt7wn8tuvQiZkRvcpY-3" edge="1">
          <mxGeometry relative="1" as="geometry" />
        </mxCell>
        <mxCell id="Inrt7wn8tuvQiZkRvcpY-14" value="Rates Admin Frontend" style="rounded=1;whiteSpace=wrap;html=1;" parent="1" vertex="1">
          <mxGeometry x="150" y="140" width="120" height="60" as="geometry" />
        </mxCell>
      </root>
    </mxGraphModel>
  </diagram>
</mxfile>
